<svg width="51" height="39" viewBox="0 0 51 39" fill="none" xmlns="http://www.w3.org/2000/svg">
<path d="M0.147461 0.305574C3.06778 0.253657 7.46123 1.29199 12.2505 2.75864C17.8316 4.4654 21.907 7.11315 24.399 9.02109C27.0144 7.05475 30.9795 4.5303 36.2425 2.7197C42.6997 0.493772 46.6648 0.195251 50.273 0.338022C50.3055 13.0641 50.2406 25.8616 50.273 38.5941C47.781 38.5617 47.2035 38.6266 44.7115 38.5941C44.7115 28.2108 44.6011 17.7496 44.6011 7.36625C42.7451 7.40518 39.5457 7.69722 36.0284 9.26121C34.8343 9.78686 32.2125 11.0913 29.6491 13.5638C29.5972 13.6157 29.5518 13.6611 29.5193 13.6806C31.2001 16.0363 33.147 19.2941 34.6656 23.4474C36.8915 29.5412 37.7352 35.0638 37.6638 38.6071H31.7193C31.7712 35.6868 31.0249 28.5807 27.5789 22.143C26.002 19.1903 24.717 17.9183 22.9908 16.0818C20.9855 13.9532 18.818 12.506 18.2599 12.1101C11.5821 7.47008 2.98341 6.17865 0.147461 6.15918V0.305574Z" fill="#3E224A"/>
<path d="M9.9987 38.5622C10.0182 37.8159 9.97923 36.7451 9.71316 35.4926C9.51198 34.5386 9.24591 33.338 8.42173 32.0726C7.33148 30.4307 5.89728 29.6455 5.16396 29.2496C3.23655 28.2178 1.15988 28.1399 0.147506 28.1399C0.160485 26.3228 0.128037 24.4538 0.147506 22.6367C1.86725 22.6886 4.43063 23.0066 6.77338 24.1877C12.3998 27.0172 15.0865 33.377 15.2877 38.5622H9.9987Z" fill="#3E224A"/>
<path d="M0.147461 12.1035C2.58106 12.2333 6.13086 12.7006 9.86237 14.2126C12.0169 15.0887 16.0924 16.789 19.7071 20.8515C22.5755 24.0703 26.3654 29.9693 26.5796 38.607H20.9466C20.8363 36.7964 20.2198 30.3133 14.9827 24.7582C9.15501 18.5607 1.78284 17.9377 0.147461 17.8338" fill="#3E224A"/>
</svg>
