<svg width="161" height="63" viewBox="0 0 161 63" fill="none" xmlns="http://www.w3.org/2000/svg">
<path d="M12.0059 12.0019C14.9262 11.9499 19.3196 12.9883 24.1089 14.4549C29.69 16.1617 33.7654 18.8094 36.2574 20.7174C38.8728 18.751 42.8379 16.2266 48.1009 14.416C54.5581 12.1901 58.5232 11.8915 62.1314 12.0343C62.1639 24.7604 62.099 37.5579 62.1314 50.2904C59.6394 50.258 59.0619 50.3229 56.5699 50.2904C56.5699 39.9071 56.4595 29.4459 56.4595 19.0625C54.6035 19.1015 51.4041 19.3935 47.8868 20.9575C46.6927 21.4832 44.0709 22.7876 41.5075 25.2601C41.4556 25.312 41.4102 25.3574 41.3777 25.3769C43.0585 27.7326 45.0054 30.9904 46.524 35.1437C48.7499 41.2375 49.5936 46.7601 49.5222 50.3034H43.5777C43.6296 47.3831 42.8833 40.277 39.4373 33.8393C37.8604 30.8866 36.5754 29.6146 34.8492 27.7781C32.8439 25.6495 30.6764 24.2023 30.1183 23.8064C23.4405 19.1664 14.8418 17.8749 12.0059 17.8555V12.0019Z" fill="#3E224A"/>
<path d="M21.8576 50.2585C21.8771 49.5122 21.8381 48.4414 21.572 47.1889C21.3709 46.2349 21.1048 45.0343 20.2806 43.7689C19.1904 42.127 17.7562 41.3418 17.0228 40.9459C15.0954 39.9141 13.0188 39.8362 12.0064 39.8362C12.0194 38.0191 11.9869 36.1501 12.0064 34.333C13.7261 34.3849 16.2895 34.7029 18.6323 35.884C24.2587 38.7135 26.9454 45.0733 27.1466 50.2585H21.8576Z" fill="#3E224A"/>
<path d="M12.0059 23.7998C14.4395 23.9296 17.9893 24.3968 21.7208 25.9089C23.8753 26.785 27.9508 28.4853 31.5655 32.5478C34.4339 35.7666 38.2238 41.6656 38.438 50.3033H32.805C32.6947 48.4927 32.0782 42.0096 26.8411 36.4545C21.0134 30.2569 13.6412 29.6339 12.0059 29.5301" fill="#3E224A"/>
<path d="M80.2808 31.4312V34.7423H68.6729V31.4312H80.2808Z" fill="#3E224A"/>
<path d="M95.2808 17.0605V46.1514H90.0109V17.0605H95.2808ZM110.277 46.5775C108.147 46.5775 106.3 46.1088 104.737 45.1713C103.175 44.2338 101.963 42.9222 101.101 41.2366C100.249 39.551 99.8227 37.5813 99.8227 35.3275C99.8227 33.0737 100.249 31.0993 101.101 29.4042C101.963 27.7091 103.175 26.3928 104.737 25.4553C106.3 24.5178 108.147 24.0491 110.277 24.0491C112.408 24.0491 114.255 24.5178 115.817 25.4553C117.38 26.3928 118.587 27.7091 119.439 29.4042C120.301 31.0993 120.732 33.0737 120.732 35.3275C120.732 37.5813 120.301 39.551 119.439 41.2366C118.587 42.9222 117.38 44.2338 115.817 45.1713C114.255 46.1088 112.408 46.5775 110.277 46.5775ZM110.306 42.4582C111.461 42.4582 112.427 42.141 113.203 41.5065C113.98 40.8625 114.558 40.0008 114.936 38.9213C115.325 37.8417 115.519 36.6391 115.519 35.3133C115.519 33.9781 115.325 32.7707 114.936 31.6911C114.558 30.6021 113.98 29.7356 113.203 29.0917C112.427 28.4478 111.461 28.1258 110.306 28.1258C109.122 28.1258 108.137 28.4478 107.351 29.0917C106.575 29.7356 105.992 30.6021 105.604 31.6911C105.225 32.7707 105.036 33.9781 105.036 35.3133C105.036 36.6391 105.225 37.8417 105.604 38.9213C105.992 40.0008 106.575 40.8625 107.351 41.5065C108.137 42.141 109.122 42.4582 110.306 42.4582ZM122.443 21.4781V17.0605H145.654V21.4781H136.662V46.1514H131.435V21.4781H122.443Z" fill="#3E224A"/>
</svg>
